<svg xmlns="http://www.w3.org/2000/svg" width="20" height="20" preserveAspectRatio="xMinYMin"><rect id="backgroundrect" width="100%" height="100%" x="0" y="0" fill="none" stroke="none" style="" class=""/><g class="currentLayer" style=""><title>Layer 1</title><path d="M18.8799991607666,1.0989999771118164 C18.14699935913086,0.3660000264644623 17.264999389648438,0 16.232999801635742,0 H3.746000051498413 C2.7139999866485596,0 1.8320000171661377,0.3660000264644623 1.0989999771118164,1.0989999771118164 C0.3660000264644623,1.8320000171661377 0,2.7139999866485596 0,3.746000051498413 v12.487000465393066 c0,1.031999945640564 0.3660000264644623,1.9140000343322754 1.0989999771118164,2.6470000743865967 c0.7330000400543213,0.7330000400543213 1.6150000095367432,1.0989999771118164 2.6470000743865967,1.0989999771118164 H6.659999847412109 c0.1899999976158142,0 0.3330000042915344,-0.007000000216066837 0.42900002002716064,-0.020000001415610313 a0.5040000081062317,0.5040000081062317 0 0 0 0.28600001335144043,-0.16899999976158142 c0.0950000062584877,-0.10000000149011612 0.14300000667572021,-0.24500000476837158 0.14300000667572021,-0.4350000023841858 l-0.007000000216066837,-0.8849999904632568 c-0.004000000189989805,-0.5640000104904175 -0.006000000052154064,-1.0099999904632568 -0.006000000052154064,-1.340000033378601 l-0.30000001192092896,0.052000004798173904 c-0.1899999976158142,0.03500000014901161 -0.4300000071525574,0.05000000447034836 -0.7209999561309814,0.046000003814697266 a5.554999828338623,5.554999828338623 0 0 1 -0.9040000438690186,-0.09100000560283661 a2.0260000228881836,2.0260000228881836 0 0 1 -0.871999979019165,-0.39000001549720764 a1.6510000228881836,1.6510000228881836 0 0 1 -0.5719999670982361,-0.800000011920929 l-0.12999999523162842,-0.30000001192092896 a3.25,3.25 0 0 0 -0.4099999964237213,-0.6630000472068787 c-0.1860000044107437,-0.24300001561641693 -0.375,-0.40700000524520874 -0.5659999847412109,-0.49400001764297485 l-0.09000000357627869,-0.0650000050663948 a0.956000030040741,0.956000030040741 0 0 1 -0.17000001668930054,-0.15600000321865082 a0.7229999899864197,0.7229999899864197 0 0 1 -0.11699999868869781,-0.18200001120567322 c-0.026000000536441803,-0.061000000685453415 -0.004000000189989805,-0.11100000143051147 0.0650000050663948,-0.15000000596046448 c0.07000000774860382,-0.04000000283122063 0.19499999284744263,-0.05900000408291817 0.3779999911785126,-0.05900000408291817 l0.25999999046325684,0.04000000283122063 c0.1730000227689743,0.03400000184774399 0.3880000114440918,0.1379999965429306 0.643000066280365,0.3109999895095825 a2.0999999046325684,2.0999999046325684 0 0 1 0.6309999823570251,0.6770000457763672 c0.20000000298023224,0.35500001907348633 0.4399999976158142,0.6259999871253967 0.7219999432563782,0.8130000233650208 c0.28200000524520874,0.1860000044107437 0.5659999847412109,0.2800000011920929 0.8519999980926514,0.2800000011920929 c0.28600001335144043,0 0.5329999923706055,-0.02200000174343586 0.7419999837875366,-0.0650000050663948 a2.5900001525878906,2.5900001525878906 0 0 0 0.5849999785423279,-0.19599999487400055 c0.078000009059906,-0.5799999833106995 0.2900000214576721,-1.027999997138977 0.6370000243186951,-1.340000033378601 a8.906999588012695,8.906999588012695 0 0 1 -1.3329999446868896,-0.23399999737739563 a5.314000129699707,5.314000129699707 0 0 1 -1.2230000495910645,-0.5070000290870667 a3.5,3.5 0 0 1 -1.0470000505447388,-0.871999979019165 c-0.2770000100135803,-0.34700000286102295 -0.5049999952316284,-0.8019999861717224 -0.6830000281333923,-1.3650000095367432 c-0.1770000159740448,-0.5640000104904175 -0.26600000262260437,-1.215000033378601 -0.26600000262260437,-1.9520000219345093 c0,-1.0490000247955322 0.34200000762939453,-1.9420000314712524 1.0269999504089355,-2.680000066757202 c-0.320000022649765,-0.7879999876022339 -0.2900000214576721,-1.6730000972747803 0.09100000560283661,-2.6519999504089355 c0.25200000405311584,-0.07900001108646393 0.625,-0.020000001415610313 1.11899995803833,0.17500001192092896 c0.49400001764297485,0.19499999284744263 0.8560000061988831,0.3620000183582306 1.0859999656677246,0.5 c0.23000000417232513,0.14000000059604645 0.414000004529953,0.25699999928474426 0.5530000329017639,0.35200002789497375 a9.232999801635742,9.232999801635742 0 0 1 2.496999979019165,-0.33799999952316284 c0.859000027179718,0 1.690999984741211,0.11299999803304672 2.497999906539917,0.33799999952316284 l0.49400001764297485,-0.31200000643730164 a6.997000217437744,6.997000217437744 0 0 1 1.1970000267028809,-0.5719999670982361 c0.46000000834465027,-0.17400000989437103 0.8100000023841858,-0.22100000083446503 1.0540000200271606,-0.14300000667572021 c0.39000001549720764,0.9800000190734863 0.4240000247955322,1.8640000820159912 0.10300000011920929,2.6530001163482666 c0.6850000023841858,0.737000048160553 1.027999997138977,1.6299999952316284 1.027999997138977,2.680000066757202 c0,0.737000048160553 -0.08900000900030136,1.3899999856948853 -0.2669999897480011,1.9570000171661377 c-0.1770000159740448,0.5680000185966492 -0.40700000524520874,1.0230000019073486 -0.6890000104904175,1.3660000562667847 c-0.28200000524520874,0.34299999475479126 -0.6330000162124634,0.6299999952316284 -1.0529999732971191,0.8650000095367432 c-0.42000001668930054,0.23399999737739563 -0.828000009059906,0.40299999713897705 -1.2230000495910645,0.5070000290870667 a8.899999618530273,8.899999618530273 0 0 1 -1.3329999446868896,0.23499999940395355 c0.45000001788139343,0.39000001549720764 0.6759999990463257,1.0049999952316284 0.6759999990463257,1.8459999561309814 v3.109999895095825 c0,0.1469999998807907 0.021000001579523087,0.26600000262260437 0.0650000050663948,0.3570000231266022 a0.36000001430511475,0.36000001430511475 0 0 0 0.20800000429153442,0.18900001049041748 c0.09600000083446503,0.03400000184774399 0.18000000715255737,0.056000005453825 0.2540000081062317,0.06400000303983688 c0.07400000840425491,0.010000000707805157 0.18000000715255737,0.013000000268220901 0.3179999887943268,0.013000000268220901 h2.9140000343322754 c1.031999945640564,0 1.9140000343322754,-0.3660000264644623 2.6470000743865967,-1.0989999771118164 c0.7319999933242798,-0.7319999933242798 1.0989999771118164,-1.6150000095367432 1.0989999771118164,-2.6470000743865967 V3.746000051498413 c0,-1.031999945640564 -0.367000013589859,-1.9140000343322754 -1.100000023841858,-2.6470000743865967 z" id="svg_1" class="" transform=""/></g></svg>