<svg xmlns="http://www.w3.org/2000/svg" width="20" height="19" preserveAspectRatio="xMinYMin"><rect id="backgroundrect" width="100%" height="100%" x="0" y="0" fill="none" stroke="none" style="" class=""/><g class="currentLayer" style=""><title>Layer 1</title><path d="M19.958999633789062,11.692999862134457 v7.379000186920166 h-4.2779998779296875 v-6.885000228881836 c0,-1.7300000190734863 -0.6190000176429749,-2.9100000858306885 -2.1670000553131104,-2.9100000858306885 c-1.1820000410079956,0 -1.8859999179840088,0.7959999442100525 -2.194999933242798,1.565000057220459 c-0.11299999803304672,0.2750000059604645 -0.1420000046491623,0.6580000519752502 -0.1420000046491623,1.0429999828338623 v7.186999797821045 h-4.28000020980835 s0.05800000578165054,-11.65999984741211 0,-12.869000434875488 h4.28000020980835 v1.8240000009536743 l-0.02800000086426735,0.04200000315904617 h0.02800000086426735 v-0.04200000315904617 c0.5680000185966492,-0.875 1.5829999446868896,-2.125999927520752 3.8559999465942383,-2.125999927520752 c2.815000057220459,0 4.926000118255615,1.840000033378601 4.926000118255615,5.791999816894531 zM2.4210000038146973,0 C0.9580000638961792,0 0,0.9600000008940697 0,2.2230000719428062 c0,1.2350000143051147 0.9300000667572021,2.2239999771118164 2.365000009536743,2.2239999771118164 h0.02800000086426735 c1.4930000305175781,0 2.4200000762939453,-0.9890000224113464 2.4200000762939453,-2.2239999771118164 C4.7870001792907715,0.9600000008940697 3.88700008392334,0 2.421999931335449,0 zM0.2540000081062317,19.071999572217464 h4.2779998779296875 V6.203000091016293 H0.2540000081062317 v12.869000434875488 z" id="svg_1" class="" transform=""/></g></svg>